<svg xmlns="http://www.w3.org/2000/svg" width="69" height="27"><path fill="#fff" d="M19.7 0h.8c.5.2 1.4.6 1.5 1.4.2.6-.2 1.6-.3 2.4-.7 4.3-1.3 8-1.6 12.7-.1 1 .1 4.8-.7 5-1.4.5-2.9-1.4-2.6-2.7-.1 2.3-2.4 3.4-4.4 2.7-2.6-.9-1.2-6.5-.7-9.3.2-1.6.7-5.1 1.6-5.5 1-.3 2.3.5 2.4 1 .1.7-.5 2-.7 2.7-.6 2.2-.8 3.7-1 5.7-.1.8-.5 2 .1 2.9 1.5.2.5-2.1 1.4-2.4 1-.5 1.5.8 1.5 1.5.2-4.6.9-9.5 1.6-14.1.2-1 .4-3.5 1.1-4zm38.7 0h.9c.2.2.6.2.7.6 0 .8.7 1 .8 1.9C61 4.2 59.5 6 58 5.6c-2.3-.5-1.4-5.3.4-5.6zM16 .3c.2.8 1 1.4 1.2 2 .5 1.9-1.2 3.5-2.7 3.3-2.2-.3-1.8-6.3 1.5-5.3zm32.4 26.6H47c-1.5-.5-3.7-1-3.7-2.8 0-.9.8-1.9 2-1.6.8.2 1 1.9 2 2 1.3-.9 2-2.6 2.6-4.2-.3-.1-.8.6-1.5.7-1.6.2-2.9-.9-3.6-2-.6 2.1-1.7 4.4-4.2 4.6-2 .2-3.1-1-4.1-2.4-.5.6-1 1.4-1.7 1.3-.6-.1-1.2-1.4-1.6-2-.6-.8-1.2-1.4-1.5-2-1.3-1.5-2.3-3-3.3-3.7.1 1.2-.7 3.1-.7 4.8l.2 1.3c-.1 2.3-2.2 2.2-3.4 1 .6-5.8 1.5-11.3 2.4-16.7-.9 0-.8 1.9-1.6 2.1-.5.1-1-.3-1.4-.6-2.4-1.7 1.9-4.6 3.6-4.9 0-1.9 2.9-1.5 3 0 3 .6 5.7 2.6 5.9 5.9.2 3.4-1.6 5.5-4.6 6.2L35 18c.6-.1.8.1 1 .5 0-3 .3-5.6 1.3-8.1.7-2.1 2.2-5.2 4.6-4.2 3.1 1.4 1.5 10-1.5 10.3-.8.1-1.4-.3-1.7-.3-.2 1.5-.7 4.2.8 4.5 2.4.5 3.7-3.6 3.9-5.3l.7-.5c-.1-4.2 2.6-9.9 7.1-9 1 .2 1.9 1 1.9 2.4 1.6.3 1 1.5.8 3.3-.6 5.9-1.2 13.5-5.5 15.3zM32.9 10.3c1.9-2.1 1-6.6-2.6-6.3-.1 0-.2.1-.2.2-.3 2.4-.8 4.9-1 7.4 1.4-.1 2.7-.2 3.8-1.3zm17.4 1.5c-.1-.5 1-3.8-.2-3.5-1.6.5-3.6 6-3 9.1.6 2.9 2.4-.2 2.9-1.3.5-.9.9-2.2 1-3.6-.4-.3-.6-.2-.7-.7zm-10.8 2.4c1.2-.9 1.5-3.4 1.3-5.5-.5 1.6-1.7 3.6-1.3 5.5zM0 21.1v-.7c.2-.5.9-.3 1.4-.7.6-4.4 1.2-9.9 2-14.5.2-1.3.4-3.8 1.2-4.2.9-.3 2 .5 2.4 1-1 5.7-2 11-2.7 16.9 1.6-.2 3.1-.8 5.2-.7.7.5 1.2 1.2 1.3 2.2-.7.8-2.2.6-3.4.7-1.3.2-2.3.6-3.4.7.2 2.7-4 .3-4-.7zm68.6-5.5v1.5c-.5 2.7-2 5.9-4.9 5.9-1.6 0-2.9-1-3.6-2.6-1.7 1.9-4.4 1.9-5.3.2-1.3-2.3-.1-6.6.3-9.1.3-1.5.6-4.5 1.5-4.8 1-.3 2.4.5 2.6 1s-.5 2.1-.7 2.8c-.5 2.2-.8 3.4-1.2 5.8-.1.8-.5 2.8.2 2.9.9.2 1.5-1.7 1.6-2.7.3-2.6.5-4.5 1.2-6.7.6-1.9 1.7-4.4 3.3-4.6 2.2-.3 3 1.9 3 3.7 0 3-.8 6.7-3.3 6.9-.7 0-1.2-.5-1.5-.3-.1 1.5-.7 3.6.3 4.3 2 1.3 3.8-2.3 4.2-3.6.2-.9.1-1.9.8-2 1.1.1 1.3 1 1.5 1.4zm-5.8-2c1.2-1 1.5-3.4 1.3-5.5-.5 1.7-1.5 3.7-1.3 5.5z"/></svg>
